<?xml version="1.0" standalone="no"?>
<!DOCTYPE svg PUBLIC "-//W3C//DTD SVG 20010904//EN"
 "http://www.w3.org/TR/2001/REC-SVG-20010904/DTD/svg10.dtd">
<svg version="1.0" xmlns="http://www.w3.org/2000/svg"
 width="256.000000pt" height="256.000000pt" viewBox="0 0 256.000000 256.000000"
 preserveAspectRatio="xMidYMid meet">
<metadata>
Created by potrace 1.14, written by Peter Selinger 2001-2017
</metadata>
<g transform="translate(0.000000,256.000000) scale(0.100000,-0.100000)"
fill="#000000" stroke="none">
<path d="M1156 2300 c-345 -43 -640 -251 -796 -559 -71 -141 -99 -252 -107
-413 -9 -199 24 -356 114 -530 24 -48 44 -91 44 -95 -1 -11 -52 -12 -74 -1
-22 11 -89 144 -122 243 -56 166 -68 394 -30 569 20 96 11 95 -12 -1 -14 -61
-18 -116 -17 -248 1 -150 4 -181 27 -268 88 -330 317 -607 622 -753 308 -148
642 -148 950 0 305 146 534 423 622 753 23 87 26 118 27 268 1 132 -3 187 -17
248 -23 96 -32 97 -12 1 50 -234 17 -500 -86 -706 -51 -101 -58 -108 -100
-101 -19 3 -35 6 -36 7 -1 1 15 36 37 77 88 165 126 339 117 537 -8 161 -36
272 -107 413 -141 279 -402 480 -708 544 -88 19 -249 26 -336 15z m-82 -374
c70 -21 148 -74 144 -99 -6 -39 -31 -42 -78 -8 -86 62 -154 61 -185 -4 -16
-34 -20 -147 -9 -218 l7 -37 81 7 81 6 120 121 c158 160 267 224 362 213 89
-10 133 -73 132 -187 -2 -100 -10 -125 -39 -125 -25 0 -25 1 -30 102 -4 81 -9
105 -24 122 -41 45 -135 18 -247 -70 -57 -46 -169 -159 -169 -171 0 -5 36 -8
79 -8 164 0 430 -63 546 -130 105 -61 151 -123 142 -198 -6 -54 -57 -111 -135
-149 -48 -24 -55 -25 -69 -10 -23 22 -11 41 41 66 48 24 106 82 106 107 0 117
-297 232 -646 251 l-120 6 -35 -49 c-20 -27 -50 -72 -68 -101 l-33 -52 56
-112 c156 -312 380 -541 490 -500 100 39 74 321 -56 603 -29 65 -30 70 -15 86
28 28 48 4 95 -111 65 -160 94 -283 96 -402 1 -113 -11 -159 -53 -199 -129
-124 -401 89 -601 469 -23 44 -45 81 -48 82 -8 3 -34 -53 -69 -152 -54 -151
-60 -289 -13 -327 35 -28 81 -22 166 23 66 34 79 38 91 26 20 -20 8 -39 -43
-70 -70 -42 -150 -61 -201 -48 -49 14 -89 57 -99 107 -21 110 15 279 96 451
l39 83 -26 77 c-14 43 -27 80 -29 82 -7 8 -125 -29 -174 -54 -51 -26 -100 -76
-100 -103 0 -32 37 -78 89 -112 39 -25 51 -38 49 -54 -5 -34 -36 -31 -95 10
-116 80 -135 185 -46 265 45 40 77 57 170 89 69 23 88 33 86 47 -30 245 10
353 138 372 3 1 27 -5 53 -13z m265 -583 c11 -10 24 -32 27 -50 5 -27 1 -37
-24 -63 -34 -33 -66 -38 -100 -14 -45 32 -48 99 -5 132 24 17 77 15 102 -5z"/>
<path d="M978 1494 c-7 -6 10 -75 21 -87 5 -4 15 3 25 17 9 15 23 37 32 51
l16 25 -44 0 c-25 0 -47 -3 -50 -6z"/>
<path d="M300 1840 c-6 -11 -8 -20 -6 -20 3 0 10 9 16 20 6 11 8 20 6 20 -3 0
-10 -9 -16 -20z"/>
<path d="M2250 1840 c6 -11 13 -20 16 -20 2 0 0 9 -6 20 -6 11 -13 20 -16 20
-2 0 0 -9 6 -20z"/>
<path d="M242 1725 c-17 -37 -14 -45 4 -12 9 16 14 31 11 33 -2 2 -9 -7 -15
-21z"/>
<path d="M2301 1745 c0 -5 6 -21 14 -35 8 -14 14 -20 14 -15 0 6 -6 21 -14 35
-8 14 -14 21 -14 15z"/>
<path d="M211 1649 c-6 -18 -11 -37 -10 -43 0 -6 7 7 15 28 8 22 12 41 10 43
-2 2 -9 -10 -15 -28z"/>
<path d="M2332 1675 c0 -5 6 -26 13 -45 7 -19 14 -28 14 -20 0 8 -6 29 -14 45
-7 17 -13 26 -13 20z"/>
<path d="M331 715 c4 -3 19 -8 35 -11 16 -3 26 -2 23 1 -4 3 -19 8 -35 11 -16
3 -26 2 -23 -1z"/>
</g>
</svg>
