<?xml version="1.0" standalone="no"?>
<!DOCTYPE svg PUBLIC "-//W3C//DTD SVG 20010904//EN"
 "http://www.w3.org/TR/2001/REC-SVG-20010904/DTD/svg10.dtd">
<svg version="1.0" xmlns="http://www.w3.org/2000/svg"
 width="1024.000000pt" height="1024.000000pt" viewBox="0 0 1024.000000 1024.000000"
 preserveAspectRatio="xMidYMid meet">
<metadata>
Created by potrace 1.14, written by Peter Selinger 2001-2017
</metadata>
<g transform="translate(0.000000,1024.000000) scale(0.100000,-0.100000)"
fill="#000000" stroke="none">
<path d="M4858 10235 c-2 -1 -50 -5 -108 -9 -58 -3 -116 -8 -130 -11 -14 -2
-50 -6 -80 -9 -83 -8 -139 -16 -350 -51 -21 -4 -195 -40 -240 -50 -61 -13
-199 -51 -270 -72 -47 -15 -89 -28 -95 -29 -29 -5 -250 -83 -300 -104 -11 -5
-72 -30 -135 -55 -146 -59 -390 -178 -539 -262 -102 -57 -368 -223 -396 -245
-5 -5 -35 -26 -65 -48 -127 -91 -159 -115 -160 -122 0 -5 -7 -8 -15 -8 -7 0
-18 -6 -22 -13 -4 -6 -26 -25 -48 -42 -21 -16 -47 -36 -56 -45 -9 -8 -40 -35
-68 -60 -105 -89 -145 -127 -270 -250 -128 -127 -203 -208 -276 -295 -22 -27
-45 -53 -50 -59 -19 -19 -196 -249 -213 -275 -9 -15 -19 -28 -23 -31 -15 -12
-203 -306 -274 -430 -135 -235 -288 -566 -371 -802 -14 -40 -28 -80 -31 -88
-3 -8 -7 -19 -9 -25 -2 -5 -19 -62 -39 -125 -54 -175 -122 -450 -141 -574 -3
-21 -8 -48 -10 -60 -7 -33 -33 -215 -39 -276 -3 -30 -8 -68 -10 -85 -27 -178
-27 -795 0 -1011 3 -21 7 -57 9 -79 14 -119 21 -166 52 -335 41 -227 36 -200
74 -350 62 -241 176 -577 250 -737 11 -24 20 -45 20 -49 0 -7 182 -377 204
-414 181 -310 241 -400 402 -615 62 -82 123 -162 136 -176 13 -15 43 -51 68
-80 75 -88 130 -147 245 -264 123 -124 227 -219 360 -330 33 -27 62 -52 65
-55 3 -3 55 -42 115 -88 61 -45 115 -85 120 -90 67 -51 335 -222 450 -287 128
-73 395 -204 535 -262 130 -55 369 -144 425 -158 6 -1 17 -5 25 -8 12 -5 100
-31 145 -43 62 -17 255 -67 270 -70 11 -2 43 -8 70 -14 81 -17 95 -19 215 -40
112 -19 142 -23 245 -35 207 -24 317 -30 595 -30 240 0 435 8 496 19 11 2 51
7 89 10 39 4 80 8 90 10 11 2 40 7 65 10 25 3 54 8 65 10 11 2 40 7 65 11 103
17 232 43 325 67 44 11 87 22 95 23 344 82 840 281 1210 488 293 163 634 403
860 603 202 180 427 408 552 560 86 105 187 233 208 264 8 12 41 57 73 101 31
43 57 83 57 88 0 5 4 11 8 13 11 4 128 193 207 334 58 102 225 436 225 448 0
2 10 26 22 53 12 26 22 50 23 53 0 3 19 52 42 110 88 228 204 609 219 723 1
15 6 31 8 36 3 5 8 26 11 47 3 22 8 45 11 53 2 8 7 30 10 50 3 20 9 61 14 91
27 158 42 285 57 475 15 196 8 732 -12 870 -2 17 -6 54 -10 84 -5 47 -11 93
-30 226 -3 22 -8 51 -11 65 -2 14 -6 36 -9 50 -87 460 -237 914 -440 1325 -84
169 -145 285 -155 295 -3 3 -14 21 -24 40 -62 113 -257 403 -356 530 -63 79
-167 207 -185 226 -11 11 -42 47 -70 79 -112 131 -364 373 -535 514 -14 11
-32 27 -40 34 -8 7 -53 42 -100 78 -47 35 -86 67 -88 72 -2 4 -10 7 -17 7 -7
0 -15 3 -17 8 -3 7 -122 94 -159 117 -10 6 -75 46 -145 91 -360 226 -826 438
-1224 556 -250 74 -586 147 -800 173 -25 3 -56 7 -70 10 -14 2 -61 7 -105 10
-44 4 -98 9 -120 12 -46 5 -642 13 -647 8z m585 -649 c15 -2 60 -7 100 -11 40
-3 83 -8 97 -10 14 -2 63 -9 110 -15 47 -6 108 -16 135 -21 28 -5 66 -12 85
-15 65 -10 361 -85 469 -119 107 -33 306 -104 371 -132 19 -8 44 -19 55 -24
98 -41 261 -118 332 -156 172 -91 483 -284 491 -305 2 -4 8 -8 12 -8 9 0 123
-82 171 -123 14 -12 38 -31 53 -42 16 -11 33 -24 40 -30 6 -5 31 -28 56 -49
205 -177 343 -315 480 -476 12 -14 31 -36 43 -50 40 -47 97 -119 152 -192 30
-40 59 -78 65 -85 5 -7 10 -16 10 -22 0 -5 4 -11 9 -13 14 -5 137 -197 239
-373 281 -488 494 -1146 548 -1695 3 -30 7 -66 9 -79 25 -151 25 -728 0 -846
-2 -11 -7 -45 -9 -75 -10 -109 -34 -262 -61 -390 -10 -48 -17 -90 -16 -95 0
-2 -6 -23 -14 -45 -8 -22 -12 -40 -10 -40 3 0 0 -11 -5 -26 -6 -14 -12 -37
-15 -52 -6 -37 -87 -290 -123 -387 -104 -282 -254 -592 -386 -800 -155 -242
-290 -428 -435 -595 -155 -178 -309 -331 -476 -471 -22 -19 -42 -36 -45 -39
-16 -16 -155 -124 -210 -164 -36 -25 -69 -50 -75 -54 -70 -56 -363 -234 -515
-313 -326 -170 -703 -308 -1058 -389 -120 -28 -146 -33 -217 -45 -151 -27
-180 -31 -280 -41 -33 -3 -71 -7 -85 -10 -65 -10 -253 -18 -425 -18 -222 0
-346 8 -600 40 -35 4 -155 24 -240 40 -16 3 -50 10 -75 15 -25 6 -56 13 -70
15 -170 32 -573 163 -765 248 -150 67 -195 88 -295 139 -248 128 -620 371
-767 502 -6 5 -30 26 -53 45 -215 178 -376 340 -568 568 -69 82 -204 257 -210
272 -3 8 -8 17 -12 20 -6 4 -104 152 -137 205 -175 285 -280 501 -404 827 -41
109 -140 433 -153 500 -2 13 -15 77 -29 143 -28 129 -56 309 -63 390 -2 28 -6
64 -8 80 -26 160 -26 711 -2 842 2 10 7 50 10 88 4 39 8 80 10 90 2 11 7 42
10 68 4 27 9 57 11 67 2 9 6 33 9 51 18 116 72 346 105 454 11 33 26 85 36
115 20 66 101 289 125 345 10 22 28 65 40 95 78 192 309 608 407 735 4 6 23
33 42 60 41 59 199 266 215 280 6 6 24 26 40 45 97 119 268 296 385 399 36 31
76 67 90 80 131 119 407 318 627 450 201 121 550 294 629 311 6 1 18 6 29 12
48 26 266 100 438 149 104 29 124 34 178 45 14 3 43 10 65 15 22 5 48 12 58
14 18 4 223 38 302 50 22 3 65 8 95 11 30 3 66 7 80 9 14 3 72 8 130 11 58 4
106 8 108 9 5 4 472 -4 505 -9z"/>
<path d="M3656 8583 c-4 -4 -25 -9 -46 -10 -105 -5 -262 -49 -355 -98 -72 -39
-119 -67 -148 -89 -57 -43 -193 -185 -234 -244 -54 -78 -124 -208 -116 -216 4
-3 1 -6 -5 -6 -7 0 -12 -8 -12 -18 0 -10 -4 -22 -9 -28 -9 -9 -68 -181 -76
-222 -2 -13 -7 -32 -10 -43 -4 -10 -8 -31 -10 -47 -2 -15 -4 -28 -6 -29 -3 -5
-4 -9 -26 -153 -19 -127 -25 -536 -10 -680 5 -41 9 -86 10 -99 2 -22 -16 -33
-178 -114 -99 -50 -182 -93 -185 -96 -3 -3 -21 -14 -40 -25 -19 -10 -80 -48
-135 -84 -242 -158 -456 -359 -581 -546 -133 -197 -194 -381 -199 -592 -5
-176 25 -313 103 -474 73 -151 152 -258 297 -405 197 -197 402 -340 730 -506
153 -77 190 -99 188 -115 -1 -10 -4 -41 -7 -69 -4 -27 -9 -130 -11 -228 -3
-98 -6 -181 -6 -185 -1 -4 -1 -9 1 -12 1 -3 3 -41 5 -85 6 -117 27 -300 35
-300 1 0 3 -17 5 -37 2 -20 9 -56 16 -80 7 -24 12 -46 11 -51 -1 -4 4 -23 12
-42 8 -19 13 -35 11 -35 -2 0 3 -16 11 -35 8 -19 14 -37 14 -40 0 -3 7 -21 15
-41 8 -20 15 -39 15 -42 0 -10 85 -177 93 -180 4 -2 7 -8 7 -12 0 -35 152
-213 254 -298 62 -52 198 -126 281 -152 22 -7 49 -16 60 -21 11 -4 38 -11 60
-15 22 -4 47 -9 55 -10 8 -2 44 -6 79 -9 36 -3 67 -7 69 -10 3 -2 13 0 23 5
10 6 20 7 23 2 4 -6 61 -8 61 -2 0 1 25 3 55 4 61 3 122 12 190 28 25 5 53 11
64 14 10 2 44 11 75 20 31 9 61 17 66 19 6 1 18 5 27 9 9 4 22 9 30 10 7 1 30
10 52 19 21 9 40 17 42 17 7 0 119 51 157 71 20 11 37 17 37 12 0 -4 4 -3 8 3
4 6 27 21 52 33 71 37 101 54 160 91 30 19 58 33 63 32 4 -1 7 2 7 8 0 5 6 10
14 10 8 0 16 3 18 8 2 4 46 36 98 71 52 36 97 68 100 73 5 7 67 -30 97 -59 7
-6 22 -15 33 -18 11 -3 20 -11 20 -16 0 -5 8 -13 18 -17 24 -10 105 -65 114
-77 4 -5 8 -7 8 -3 0 4 25 -8 55 -28 51 -32 307 -165 330 -171 6 -1 53 -19
105 -39 52 -20 100 -37 105 -39 6 -1 17 -4 25 -8 12 -4 102 -29 120 -33 3 0
16 -4 30 -7 14 -4 39 -9 55 -11 17 -3 41 -7 55 -10 54 -12 196 -18 310 -15 38
1 200 31 245 45 107 34 211 85 290 143 63 46 175 156 175 172 0 7 3 9 6 6 9
-8 72 81 120 168 21 39 43 73 48 77 6 4 7 8 2 8 -4 0 -2 10 6 22 12 18 69 165
74 188 0 3 4 12 7 20 9 21 44 167 51 210 3 19 8 46 10 60 3 14 8 48 11 75 4
28 9 61 11 75 2 14 6 105 9 203 3 98 6 181 6 185 1 4 1 9 0 12 -1 3 -4 41 -6
85 -2 44 -7 107 -10 140 -11 119 -10 125 9 125 35 0 525 264 556 299 3 3 28
21 55 40 28 19 64 46 81 60 18 14 47 37 65 51 56 43 212 201 275 280 110 137
181 268 227 415 35 112 39 135 42 271 4 128 -9 220 -46 334 -26 78 -118 270
-130 270 -5 0 -9 5 -9 11 0 5 -16 31 -35 57 -119 161 -289 324 -495 473 -86
62 -258 161 -424 244 -166 83 -181 92 -179 115 1 14 6 59 10 100 13 130 7 645
-7 645 -1 0 -3 18 -5 40 -9 112 -58 313 -107 445 -30 80 -120 260 -130 260 -4
0 -8 5 -8 10 0 12 -30 55 -70 104 -51 61 -192 196 -206 196 -3 0 -18 8 -32 19
-48 33 -116 67 -187 94 -64 24 -103 35 -190 52 -61 12 -285 24 -285 15 0 -3
-17 -5 -38 -6 -68 -2 -202 -26 -322 -59 -125 -33 -467 -179 -520 -220 -8 -7
-40 -25 -70 -41 -30 -16 -61 -35 -68 -41 -7 -7 -17 -13 -22 -13 -5 0 -15 -6
-22 -12 -7 -7 -29 -22 -48 -32 -19 -11 -37 -22 -40 -25 -3 -3 -25 -20 -50 -36
-25 -17 -54 -38 -64 -47 -26 -23 -47 -23 -74 2 -12 11 -26 20 -32 20 -5 0 -10
4 -10 8 0 5 -16 17 -35 28 -19 10 -35 22 -35 26 0 5 -5 8 -11 8 -6 0 -25 11
-43 25 -18 14 -38 25 -44 25 -7 0 -12 5 -12 10 0 6 -4 10 -9 10 -6 0 -30 14
-54 30 -25 17 -49 30 -55 30 -5 0 -15 7 -22 15 -7 9 -15 13 -18 11 -3 -3 -17
3 -31 13 -33 23 -205 105 -241 116 -3 1 -21 8 -40 16 -48 21 -180 68 -205 72
-11 2 -27 7 -35 10 -14 5 -86 21 -140 31 -14 3 -36 7 -50 10 -14 3 -68 9 -120
12 -52 3 -105 7 -117 9 -13 2 -25 -1 -29 -6 -4 -6 -10 -6 -18 0 -7 6 -16 8
-20 4z m224 -338 c78 -12 210 -39 218 -45 1 -2 5 -3 10 -4 32 -7 150 -51 161
-60 8 -6 17 -10 20 -10 7 2 26 -5 94 -35 26 -11 50 -20 54 -20 3 0 9 -3 12 -8
3 -4 32 -21 64 -38 31 -16 57 -34 57 -39 0 -5 3 -7 6 -4 3 3 33 -12 67 -33 34
-22 73 -45 87 -51 14 -7 32 -21 41 -30 9 -10 20 -18 25 -18 5 0 20 -9 34 -20
l25 -19 -39 -35 c-21 -20 -40 -36 -42 -36 -14 0 -356 -346 -464 -470 -25 -28
-54 -62 -65 -74 -11 -13 -29 -34 -40 -47 -11 -13 -50 -60 -87 -105 l-66 -80
-119 -19 c-65 -11 -120 -20 -123 -20 -3 -1 -25 -5 -50 -9 -25 -5 -54 -10 -65
-13 -11 -2 -31 -6 -44 -9 -12 -3 -51 -11 -85 -19 -33 -8 -76 -17 -95 -20 -19
-3 -37 -8 -41 -10 -3 -2 -17 -6 -31 -9 -66 -14 -198 -52 -327 -93 -79 -25
-145 -43 -148 -40 -16 16 -20 572 -4 572 0 0 3 20 5 45 2 25 6 56 9 70 3 14 8
39 11 55 3 17 8 41 11 55 3 14 8 36 11 50 8 39 9 43 17 70 8 26 9 31 45 120
13 30 24 61 25 68 1 7 8 18 14 24 7 7 12 16 12 21 0 44 221 297 259 297 5 0
14 6 20 14 7 8 22 17 34 20 13 3 41 13 63 23 21 10 44 18 49 19 6 1 12 3 15 4
57 21 262 30 360 15z m2763 1 c15 -3 39 -8 54 -12 15 -3 30 -7 35 -10 4 -3 17
-7 29 -9 39 -8 133 -56 178 -92 57 -45 146 -140 163 -173 7 -14 16 -27 19 -30
13 -12 68 -120 89 -175 12 -33 26 -69 31 -80 15 -35 50 -179 51 -207 1 -16 4
-28 7 -28 3 0 6 -10 7 -22 1 -27 12 -127 21 -178 12 -77 3 -513 -11 -527 -3
-3 -63 13 -135 36 -71 23 -138 44 -148 46 -10 2 -67 17 -128 34 -60 18 -123
34 -139 37 -16 3 -32 6 -35 8 -3 2 -22 7 -41 10 -19 3 -44 8 -55 10 -50 11
-172 36 -195 39 -14 3 -74 13 -135 23 -103 16 -112 20 -145 54 -19 20 -44 49
-55 64 -11 16 -33 43 -50 61 -16 18 -39 44 -50 58 -86 108 -444 476 -564 579
-58 51 -58 56 2 87 15 8 27 18 27 21 0 4 14 13 30 20 17 7 30 16 30 21 0 5 4
9 10 9 5 0 34 16 64 35 30 19 59 35 64 35 5 0 15 7 22 15 7 8 16 13 20 10 5
-3 10 -2 12 2 5 13 125 73 132 66 3 -4 6 -2 6 3 0 6 17 16 37 24 21 7 54 20
73 28 19 9 37 16 40 17 3 1 50 15 105 33 55 17 114 34 130 37 17 2 41 7 55 10
14 4 40 7 58 9 17 1 34 5 37 7 6 7 213 2 248 -5z m-1497 -658 c108 -92 433
-411 531 -522 l43 -48 -133 8 c-275 17 -1025 8 -1061 -13 -6 -4 -4 2 5 13 38
45 76 89 104 118 17 17 49 52 73 78 23 26 42 46 42 45 0 -1 52 48 115 110 63
62 115 112 115 110 0 -4 77 65 115 102 14 14 33 13 51 -1z m384 -882 c25 -2
92 -7 150 -11 57 -4 107 -8 110 -10 3 -1 43 -6 90 -10 47 -4 94 -9 104 -11 24
-4 66 -43 66 -60 0 -7 4 -14 8 -16 9 -3 122 -155 122 -163 0 -3 6 -13 13 -21
6 -8 17 -20 22 -27 6 -7 30 -43 55 -82 25 -38 48 -74 53 -80 22 -29 87 -137
87 -145 0 -6 3 -10 8 -10 4 0 12 -9 17 -19 6 -11 34 -60 63 -109 28 -49 52
-94 52 -101 0 -6 4 -11 9 -11 5 0 15 -16 22 -35 7 -19 17 -35 21 -35 4 0 8 -9
8 -19 0 -11 3 -21 8 -23 9 -4 52 -90 52 -105 0 -6 3 -13 8 -15 13 -6 207 -418
196 -418 -2 0 3 -11 12 -25 9 -14 12 -29 8 -37 -5 -7 -9 -15 -10 -18 -2 -12
-37 -93 -89 -205 -18 -38 -38 -85 -46 -102 -8 -18 -17 -33 -21 -33 -5 0 -8 -9
-8 -20 0 -11 -5 -20 -11 -20 -6 0 -9 -6 -6 -14 3 -8 3 -16 -1 -18 -4 -2 -29
-46 -56 -98 -67 -129 -148 -274 -210 -377 -38 -63 -278 -427 -286 -433 -3 -3
-28 -36 -55 -75 -27 -38 -58 -80 -70 -92 -22 -25 -50 -30 -250 -49 -33 -3 -76
-7 -95 -9 -297 -31 -914 -25 -1237 10 -229 26 -207 17 -279 111 -19 24 -34 48
-34 52 0 4 -10 18 -23 32 -12 14 -51 68 -86 120 -35 52 -67 97 -72 98 -5 2 -9
8 -9 13 0 12 -71 122 -84 131 -6 4 -7 8 -3 8 4 0 -3 15 -16 33 -25 34 -61 94
-168 285 -12 20 -25 42 -30 48 -5 6 -6 14 -2 17 3 4 0 7 -7 7 -7 0 -11 3 -8 6
4 3 -8 31 -26 62 -53 96 -186 375 -186 392 0 5 -5 10 -12 10 -6 0 -8 3 -5 7 4
3 2 12 -4 20 -6 7 -9 13 -5 13 3 0 -3 16 -14 36 -11 19 -21 45 -21 57 -1 28
23 97 33 97 5 0 8 8 8 18 0 10 7 27 15 38 8 12 11 24 8 28 -3 3 -2 6 4 6 6 0
14 15 17 34 4 19 10 36 14 38 4 2 14 19 23 38 52 110 145 296 150 300 4 3 9
15 13 28 4 12 11 22 15 22 4 0 8 6 8 13 0 18 163 297 174 297 5 0 8 4 6 8 -2
8 77 141 98 165 18 21 90 131 97 150 4 9 12 17 18 17 5 0 10 6 10 13 0 7 11
25 25 40 14 15 22 27 18 27 -4 0 0 5 10 11 9 5 17 15 17 20 0 6 6 16 13 23 6
8 19 24 27 36 50 75 67 85 175 95 104 9 169 16 210 20 22 3 96 8 165 11 69 3
126 7 128 9 5 5 628 -3 682 -9z m-1796 -183 c-21 -32 -44 -64 -51 -71 -7 -7
-13 -17 -13 -22 0 -5 -13 -29 -29 -52 -26 -40 -100 -155 -128 -203 -7 -11 -46
-81 -88 -155 -42 -74 -80 -142 -85 -150 -5 -8 -42 -81 -82 -162 -40 -81 -76
-148 -79 -148 -6 0 -60 158 -66 194 -2 11 -8 25 -14 32 -6 8 -9 19 -6 26 2 7
-1 24 -8 38 -7 14 -15 39 -18 55 -3 17 -8 37 -11 45 -3 8 -8 26 -11 40 -2 14
-16 75 -30 135 -26 111 -30 127 -41 201 l-6 41 158 51 c158 50 201 63 344 100
59 16 159 38 194 44 3 1 27 6 53 13 26 7 50 11 51 9 2 -1 -13 -29 -34 -61z
m2804 48 c51 -2 342 -79 575 -153 173 -55 167 -49 147 -133 -5 -22 -11 -51
-14 -65 -14 -72 -38 -179 -46 -205 -5 -16 -12 -43 -15 -60 -7 -32 -12 -57 -15
-65 -1 -3 -2 -8 -1 -12 0 -5 -4 -8 -10 -8 -5 0 -8 -4 -5 -9 3 -5 -3 -34 -14
-65 -10 -31 -17 -56 -15 -56 2 0 -3 -17 -11 -37 -14 -33 -20 -51 -28 -90 -1
-7 -5 -16 -9 -19 -4 -4 -7 -17 -7 -28 0 -25 -60 70 -60 96 0 9 -3 18 -8 20 -4
2 -27 44 -52 93 -25 50 -48 92 -52 93 -5 2 -8 9 -8 15 0 7 -41 81 -90 166 -50
85 -90 156 -90 158 0 2 -18 31 -40 63 -22 32 -40 63 -40 69 0 5 -4 11 -8 13
-4 2 -25 32 -46 68 -22 36 -44 70 -50 75 -13 11 -56 79 -56 88 0 3 14 2 30 -3
17 -5 34 -9 38 -9z m-3877 -348 c1 -5 3 -17 4 -28 2 -11 8 -40 14 -65 6 -25
14 -60 17 -79 2 -18 9 -41 14 -51 5 -9 7 -20 4 -23 -3 -3 0 -15 6 -27 6 -12
13 -34 14 -48 2 -15 6 -34 9 -42 5 -13 16 -57 22 -86 2 -6 15 -51 31 -100 15
-49 29 -92 30 -96 1 -5 2 -9 4 -10 1 -2 3 -11 5 -20 3 -18 30 -96 45 -133 10
-24 70 -193 77 -217 3 -10 10 -18 15 -18 5 0 6 -4 3 -10 -3 -5 -1 -18 5 -29 6
-12 7 -28 1 -43 -5 -13 -10 -27 -11 -33 -2 -5 -14 -34 -27 -62 -12 -29 -20
-53 -17 -53 4 0 2 -6 -3 -12 -6 -7 -25 -58 -43 -113 -18 -55 -35 -104 -39
-110 -3 -5 -7 -19 -8 -30 -2 -11 -12 -45 -23 -76 -11 -30 -20 -63 -20 -72 0
-9 -5 -17 -11 -17 -5 0 -8 -4 -5 -9 4 -5 1 -22 -5 -38 -7 -15 -13 -35 -14 -43
-1 -8 -8 -35 -15 -60 -6 -25 -14 -53 -16 -63 -2 -10 -6 -28 -10 -39 -3 -11 -7
-30 -9 -41 -2 -12 -10 -49 -19 -82 -17 -71 -15 -61 -22 -107 l-6 -37 -102 50
c-115 58 -339 189 -378 222 -15 12 -39 31 -54 42 -106 76 -253 214 -312 294
-15 20 -33 42 -39 49 -57 60 -144 261 -160 370 -41 268 107 560 418 826 48 41
251 187 269 194 8 3 27 13 41 23 40 28 293 159 307 159 6 0 13 -3 13 -7z
m5042 -45 c122 -62 286 -158 345 -201 146 -108 193 -148 286 -241 229 -232
335 -493 291 -721 -16 -87 -56 -193 -95 -257 -17 -27 -30 -51 -30 -55 0 -3
-17 -27 -37 -52 -21 -25 -42 -52 -48 -59 -16 -22 -170 -175 -196 -196 -13 -11
-38 -31 -55 -45 -17 -14 -44 -35 -59 -46 -16 -11 -33 -25 -40 -31 -38 -39
-446 -264 -477 -264 -7 0 -13 10 -14 23 -1 28 -6 55 -44 207 -17 69 -32 134
-34 145 -2 11 -6 27 -9 35 -4 8 -15 47 -26 85 -30 109 -51 178 -60 200 -5 11
-16 45 -26 75 -36 112 -95 270 -116 312 -11 21 -7 38 30 126 16 39 28 72 25
72 -3 0 1 10 8 23 7 12 13 27 14 32 1 12 12 41 25 70 5 11 11 29 13 40 3 11
12 37 20 57 9 21 16 40 15 43 0 6 37 134 52 175 5 14 20 70 34 125 28 107 29
112 49 203 3 13 7 31 10 40 5 18 16 72 21 107 2 11 4 21 4 23 3 8 35 -4 124
-50z m-4500 -1540 c14 -29 25 -57 26 -63 2 -5 8 -17 15 -25 7 -8 27 -44 44
-79 18 -35 37 -70 44 -79 7 -8 12 -18 12 -21 -2 -6 17 -40 82 -154 19 -32 34
-60 34 -61 0 -2 25 -43 55 -92 30 -49 61 -100 67 -114 7 -14 15 -27 19 -30 3
-3 21 -31 40 -62 18 -32 37 -58 41 -58 5 0 8 -5 8 -11 0 -6 20 -40 45 -75 25
-35 40 -62 33 -59 -7 2 -26 6 -43 8 -16 3 -60 12 -96 21 -37 8 -78 17 -90 20
-77 14 -497 139 -524 155 -10 6 -17 8 -36 10 -14 1 -8 54 17 166 4 17 8 39 10
50 1 11 3 20 4 20 1 0 3 7 5 15 9 35 37 156 40 170 2 14 6 26 22 68 3 9 6 20
5 24 -1 3 11 46 27 95 15 48 36 116 47 150 10 35 20 63 21 63 1 0 13 -24 26
-52z m3869 17 c1 -11 6 -22 10 -25 4 -3 9 -15 11 -25 2 -11 6 -27 9 -35 16
-47 33 -101 45 -145 8 -27 21 -75 29 -105 9 -30 17 -66 19 -80 2 -14 4 -25 5
-25 5 0 69 -296 70 -322 0 -19 -16 -27 -142 -67 -79 -25 -183 -57 -233 -71
-97 -28 -418 -103 -423 -99 -2 1 26 47 62 102 36 55 66 106 66 113 0 7 3 9 7
5 4 -3 14 8 24 26 9 18 48 85 86 148 39 64 85 143 103 175 18 33 42 76 53 95
49 86 167 323 167 335 0 7 6 15 13 18 15 5 14 6 19 -18z m-3907 -1187 c244
-72 527 -136 770 -173 106 -17 111 -19 146 -56 20 -22 47 -54 60 -71 13 -18
36 -46 51 -63 51 -55 78 -90 78 -98 0 -5 5 -5 10 -2 6 3 10 2 10 -3 0 -5 17
-28 38 -52 46 -55 432 -445 432 -438 0 3 21 -15 47 -39 l47 -44 -30 -24 c-16
-14 -33 -24 -37 -25 -4 0 -32 -18 -62 -40 -30 -22 -55 -38 -55 -34 0 4 -8 0
-17 -8 -20 -16 -116 -72 -178 -102 -22 -11 -42 -23 -45 -26 -3 -3 -25 -14 -50
-24 -98 -40 -196 -77 -205 -79 -5 -2 -14 -5 -20 -9 -10 -6 -73 -21 -77 -18 -2
1 -16 -4 -33 -10 -16 -7 -40 -14 -52 -16 -13 -2 -35 -6 -50 -9 -120 -24 -298
-24 -393 0 -14 3 -36 8 -49 11 -14 3 -29 8 -35 12 -6 4 -13 7 -16 8 -3 0 -18
6 -33 12 -16 7 -30 12 -32 12 -13 0 -103 70 -153 119 -58 57 -122 141 -122
159 0 6 -3 12 -7 14 -12 5 -39 57 -73 143 -31 76 -37 95 -61 190 -23 88 -40
190 -55 325 -6 55 -6 364 0 440 2 30 5 64 5 76 1 20 1 20 74 -4 39 -14 117
-38 172 -54z m4161 -9 c12 -169 7 -422 -12 -549 -3 -25 -7 -54 -9 -65 -1 -11
-3 -20 -4 -20 -1 0 -4 -15 -7 -34 -6 -45 -11 -69 -23 -108 -5 -18 -8 -33 -6
-33 3 0 -4 -20 -15 -45 -11 -25 -17 -45 -15 -45 2 0 -6 -24 -19 -52 -28 -65
-39 -91 -40 -98 -1 -5 -8 -16 -63 -103 -42 -66 -153 -187 -172 -187 -7 0 -14
-7 -17 -15 -4 -8 -10 -12 -15 -9 -5 3 -9 1 -9 -4 0 -9 -122 -67 -165 -78 -148
-37 -316 -37 -490 1 -41 8 -60 13 -62 15 -2 2 -7 4 -13 5 -5 1 -11 3 -12 4 -2
2 -14 4 -28 7 -73 12 -457 183 -480 213 -3 3 -25 17 -50 30 -25 14 -85 52
-134 85 -78 53 -86 60 -69 70 27 15 79 63 220 201 68 66 123 118 123 116 0 -2
10 9 22 24 12 16 43 50 68 75 25 26 68 73 95 104 28 32 61 70 75 85 14 16 37
44 52 62 14 19 35 44 45 56 10 12 29 36 43 53 41 52 50 60 73 61 12 0 33 3 47
5 14 2 66 11 115 20 286 49 638 136 861 213 43 15 80 26 81 26 2 -1 5 -39 9
-86z m-1622 -251 c-10 -12 -35 -40 -54 -63 -54 -63 -357 -364 -433 -430 -86
-75 -105 -85 -122 -62 -7 9 -15 17 -17 17 -17 0 -389 363 -505 493 l-53 58
133 -8 c260 -15 1037 -7 1056 12 15 15 11 1 -5 -17z"/>
<path d="M5010 5419 c-69 -24 -139 -87 -176 -159 -26 -48 -29 -65 -28 -140 0
-68 5 -95 24 -134 71 -148 244 -221 395 -167 33 12 62 26 63 31 2 6 9 10 16
10 18 0 82 76 108 129 32 66 31 197 -1 263 -74 153 -242 223 -401 167z"/>
</g>
</svg>
